#!OML:ASF X:\für Bonn\!DataBase\2005_08_12_Daniel\c3d\Daniel.ASF
:FULLY-SPECIFIED
:DEGREES
181
root 0.624729 15.3886 -16.8723 376.281 18.1738 11.06
lowerback 86.8328 -8.24384 9.99382
upperback 7.17177 1.36955 -2.07351
thorax -10.894 1.25908 -6.77301
lowerneck 1.75619 -8.04599 -2.30614
upperneck 6.23923 -10.785 5.81276
head 2.16902 -5.23091 2.06893
rclavicle -6.04305e-014 -2.50469e-014
rhumerus 236.321 -155.006 -263.559
rradius 4.10478
rwrist 19.5111
rhand -45.3997 0.509911
rfingers 7.12502
rthumb -18.1682 -28.6616
lclavicle -6.04305e-014 -2.50469e-014
lhumerus -31.372 -18.2716 93.8162
lradius 55.7045
lwrist 13.9566
lhand -8.25073 -10.0344
lfingers 7.12502
lthumb 17.6676 19.1829
rfemur -60.9139 -10.4412 3.46182
rtibia 76.6372
rfoot -26.743 -4.03668
rtoes -16.7027
lfemur -64.0899 -7.24988 -27.9845
ltibia 69.1429
lfoot -16.061 -19.2861
ltoes -5.51802
182
root 0.620456 15.3568 -16.8708 376.285 18.3033 11.1347
lowerback 86.845 -8.21589 9.94779
upperback 7.1743 1.36737 -2.07351
thorax -10.894 1.26229 -6.75706
lowerneck 1.82169 -8.02348 -2.33519
upperneck 6.32166 -10.7571 5.84559
head 2.18759 -5.21534 2.0867
rclavicle 7.95139e-014 1.63003e-014
rhumerus 236.198 -155.135 -263.567
rradius 4.14134
rwrist 18.4291
rhand -46.2648 0.199088
rfingers 7.12502
rthumb -19.0004 -28.8929
lclavicle 7.95139e-014 1.63003e-014
lhumerus -31.1855 -18.2242 93.764
lradius 55.6149
lwrist 13.8982
lhand -8.13513 -10.0039
lfingers 7.12502
lthumb 17.7788 19.2034
rfemur -61.1103 -10.4912 3.38611
rtibia 77.0894
rfoot -26.9357 -4.11619
rtoes -16.7998
lfemur -64.3183 -7.25271 -28.07
ltibia 69.5186
lfoot -16.137 -19.4444
ltoes -5.40756
183
root 0.616637 15.3254 -16.8689 376.287 18.43 11.2007
lowerback 86.8561 -8.19137 9.89738
upperback 7.17763 1.35549 -2.08192
thorax -10.8946 1.2625 -6.74603
lowerneck 1.91314 -7.98627 -2.33717
upperneck 6.38566 -10.709 5.87717
head 2.19269 -5.19006 2.10141
rclavicle -6.36111e-015 -3.18055e-014
rhumerus 236.082 -155.317 -263.619
rradius 4.24587
rwrist 17.2637
rhand -47.0938 0.0142191
rfingers 7.12502
rthumb -19.7975 -28.9975
lclavicle -6.36111e-015 -3.18055e-014
lhumerus -31.0283 -18.2107 93.7021
lradius 55.5783
lwrist 13.92
lhand -8.01204 -9.91479
lfingers 7.12502
lthumb 17.8973 19.2817
rfemur -61.2925 -10.5676 3.32872
rtibia 77.5045
rfoot -27.1007 -4.15449
rtoes -16.9585
lfemur -64.5287 -7.25268 -28.1495
ltibia 69.8624
lfoot -16.2174 -19.584
ltoes -5.38412
184
root 0.612846 15.3013 -16.8683 376.269 18.5644 11.2481
lowerback 86.9327 -8.18463 9.86031
upperback 7.1334 1.34799 -2.09042
thorax -10.9405 1.2596 -6.74112
lowerneck 2.03271 -7.95709 -2.35479
upperneck 6.48384 -10.671 5.89582
head 2.20473 -5.16952 2.11497
rclavicle 1.59028e-014 -2.78299e-015
rhumerus 235.969 -155.512 -263.651
rradius 4.25997
rwrist 16.0839
rhand -48.0126 -0.0172234
rfingers 7.12502
rthumb -20.6805 -28.9354
lclavicle 1.59028e-014 -2.78299e-015
lhumerus -30.8844 -18.198 93.6528
lradius 55.5071
lwrist 13.8859
lhand -7.93829 -9.76109
lfingers 7.12502
lthumb 17.9682 19.4289
rfemur -61.4091 -10.6161 3.27957
rtibia 77.8534
rfoot -27.2658 -4.21195
rtoes -16.9389
lfemur -64.6883 -7.25828 -28.1995
ltibia 70.1513
lfoot -16.2444 -19.7486
ltoes -5.22316
185
root 0.608863 15.2783 -16.8665 376.262 18.6998 11.2886
lowerback 86.9832 -8.18088 9.84593
upperback 7.10824 1.35208 -2.10073
thorax -10.964 1.26334 -6.75114
lowerneck 2.17636 -7.9381 -2.38645
upperneck 6.5157 -10.647 5.95919
head 2.1953 -5.15759 2.1471
rclavicle -6.36111e-014 1.03368e-014
rhumerus 235.889 -155.686 -263.694
rradius 4.3176
rwrist 14.9015
rhand -48.9209 -0.0499067
rfingers 7.12502
rthumb -21.553 -28.8706
lclavicle -6.36111e-014 1.03368e-014
lhumerus -30.7089 -18.1951 93.6121
lradius 55.4304
lwrist 13.8616
lhand -7.79091 -9.57416
lfingers 7.12502
lthumb 18.11 19.6027
rfemur -61.5196 -10.658 3.24845
rtibia 78.1661
rfoot -27.4099 -4.29129
rtoes -17.0869
lfemur -64.8337 -7.23565 -28.2591
ltibia 70.4108
lfoot -16.301 -19.9111
ltoes -5.19948
186
root 0.605281 15.2597 -16.8656 376.24 18.841 11.315
lowerback 87.0527 -8.19819 9.84693
upperback 7.07188 1.35089 -2.11626
thorax -10.9966 1.26452 -6.77037
lowerneck 2.34682 -7.91421 -2.4025
upperneck 6.54453 -10.6144 5.99277
head 2.17665 -5.14194 2.16827
rclavicle 2.22639e-014 -1.03368e-014
rhumerus 235.833 -155.892 -263.752
rradius 4.35142
rwrist 13.6786
rhand -49.8646 0.0841021
rfingers 7.12502
rthumb -22.4591 -28.63
lclavicle 2.22639e-014 -1.03368e-014
lhumerus -30.5289 -18.1792 93.5857
lradius 55.3599
lwrist 13.8266
lhand -7.68237 -9.29661
lfingers 7.12502
lthumb 18.2144 19.8706
rfemur -61.5868 -10.7131 3.23816
rtibia 78.4271
rfoot -27.5344 -4.38884
rtoes -17.1918
lfemur -64.9471 -7.22524 -28.301
ltibia 70.6352
lfoot -16.3581 -20.0815
ltoes -5.23572
187
root 0.602285 15.2427 -16.8649 376.214 18.997 11.3022
lowerback 87.125 -8.24612 9.89639
upperback 7.02501 1.35658 -2.15126
thorax -11.0358 1.26892 -6.83341
lowerneck 2.56507 -7.89718 -2.36308
upperneck 6.53266 -10.5888 6.03452
head 2.13358 -5.12984 2.18509
rclavicle -3.49861e-014 -2.82274e-014
rhumerus 235.738 -156.052 -263.813
rradius 4.47298
rwrist 12.4416
rhand -50.8043 0.15806
rfingers 7.12502
rthumb -23.3608 -28.4443
lclavicle -3.49861e-014 -2.82274e-014
lhumerus -30.3797 -18.2343 93.5425
lradius 55.2981
lwrist 13.83
lhand -7.54601 -9.03686
lfingers 7.12502
lthumb 18.3456 20.118
rfemur -61.6464 -10.7609 3.26153
rtibia 78.6677
rfoot -27.6412 -4.45379
rtoes -17.1228
lfemur -65.0483 -7.20797 -28.2948
ltibia 70.839
lfoot -16.3856 -20.2561
ltoes -5.18329
188
root 0.599028 15.2263 -16.8634 376.182 19.1411 11.2933
lowerback 87.1797 -8.24975 9.9062
upperback 7.00035 1.37659 -2.14906
thorax -11.0537 1.27688 -6.84227
lowerneck 2.72867 -7.88607 -2.36041
upperneck 6.56298 -10.5715 6.04226
head 2.11447 -5.12152 2.19395
rclavicle 3.81667e-014 1.39149e-014
rhumerus 235.699 -156.277 -263.866
rradius 4.56054
rwrist 11.2138
rhand -51.7335 0.315781
rfingers 7.12502
rthumb -24.252 -28.1704
lclavicle 3.81667e-014 1.39149e-014
lhumerus -30.2139 -18.2545 93.5398
lradius 55.23
lwrist 13.8312
lhand -7.46586 -8.7736
lfingers 7.12502
lthumb 18.4227 20.374
rfemur -61.692 -10.8089 3.29155
rtibia 78.8814
rfoot -27.7451 -4.56174
rtoes -17.3036
lfemur -65.1348 -7.19119 -28.2988
ltibia 71.0252
lfoot -16.4321 -20.4271
ltoes -5.13709
189
root 0.594661 15.2125 -16.8621 376.151 19.2861 11.3001
lowerback 87.2304 -8.26108 9.92382
upperback 6.97545 1.39102 -2.16739
thorax -11.0723 1.28535 -6.87747
lowerneck 2.88035 -7.87876 -2.38531
upperneck 6.58117 -10.5632 6.12757
head 2.101 -5.1174 2.23228
rclavicle -9.54166e-015 -6.36111e-015
rhumerus 235.639 -156.452 -263.932
rradius 4.6898
rwrist 10.0361
rhand -52.7224 0.367342
rfingers 7.12502
rthumb -25.1998 -27.9889
lclavicle -9.54166e-015 -6.36111e-015
lhumerus -30.0647 -18.2916 93.5046
lradius 55.1964
lwrist 13.8502
lhand -7.29892 -8.51025
lfingers 7.12502
lthumb 18.5833 20.6221
rfemur -61.7196 -10.844 3.2979
rtibia 79.078
rfoot -27.8355 -4.65804
rtoes -17.3424
lfemur -65.1856 -7.16816 -28.3144
ltibia 71.1862
lfoot -16.4928 -20.588
ltoes -5.20634
190
root 0.591688 15.1995 -16.8606 376.109 19.4366 11.2722
lowerback 87.2795 -8.28891 9.96238
upperback 6.9453 1.40579 -2.18759
thorax -11.0953 1.2928 -6.92218
lowerneck 2.92327 -7.88931 -2.31633
upperneck 6.68522 -10.5762 6.12173
head 2.12375 -5.11929 2.21861
rclavicle -9.54166e-015 -6.79844e-014
rhumerus 235.596 -156.653 -264.003
rradius 4.80664
rwrist 8.89621
rhand -53.7609 0.315032
rfingers 7.12502
rthumb -26.1944 -27.8975
lclavicle -9.54166e-015 -6.79844e-014
lhumerus -29.9234 -18.3785 93.4754
lradius 55.15
lwrist 13.9291
lhand -7.20114 -8.25925
lfingers 7.12502
lthumb 18.6774 20.8641
rfemur -61.7263 -10.8807 3.34095
rtibia 79.2466
rfoot -27.9347 -4.72988
rtoes -17.3478
lfemur -65.2416 -7.15686 -28.2858
ltibia 71.3386
lfoot -16.5159 -20.7688
ltoes -5.12319
191
root 0.588174 15.1901 -16.8586 376.084 19.5753 11.2569
lowerback 87.2872 -8.2908 9.99106
upperback 6.94425 1.43335 -2.19429
thorax -11.0895 1.30659 -6.95228
lowerneck 2.92011 -7.90677 -2.22734
upperneck 6.78701 -10.5984 6.10978
head 2.15261 -5.1249 2.19747
rclavicle -2.8625e-014 -1.55052e-014
rhumerus 235.586 -156.841 -264.062
rradius 4.94803
rwrist 7.85705
rhand -54.8086 0.232513
rfingers 7.12502
rthumb -27.1971 -27.8272
lclavicle -2.8625e-014 -1.55052e-014
lhumerus -29.8046 -18.4472 93.4767
lradius 55.1515
lwrist 13.9713
lhand -7.14181 -7.98304
lfingers 7.12502
lthumb 18.7344 21.1348
rfemur -61.7284 -10.9104 3.37318
rtibia 79.3955
rfoot -28.0348 -4.82896
rtoes -17.4642
lfemur -65.2904 -7.13291 -28.2741
ltibia 71.4673
lfoot -16.5571 -20.9406
ltoes -5.20129
192
root 0.584103 15.1794 -16.8572 376.049 19.7405 11.2152
lowerback 87.2859 -8.30897 10.0421
upperback 6.94931 1.4665 -2.18806
thorax -11.0746 1.32157 -6.97572
lowerneck 2.94111 -7.9187 -2.17107
upperneck 6.8588 -10.6132 6.10469
head 2.1695 -5.12868 2.18576
rclavicle 3.49861e-014 -1.27222e-014
rhumerus 235.615 -157.048 -264.12
rradius 5.08021
rwrist 6.89359
rhand -55.8656 -0.0369818
rfingers 7.12502
rthumb -28.2078 -27.9342
lclavicle 3.49861e-014 -1.27222e-014
lhumerus -29.6428 -18.521 93.4946
lradius 55.1276
lwrist 14.0592
lhand -7.06958 -7.70759
lfingers 7.12502
lthumb 18.8039 21.4035
rfemur -61.7229 -10.9493 3.43403
rtibia 79.5297
rfoot -28.1272 -4.88761
rtoes -17.4049
lfemur -65.3438 -7.10995 -28.2386
ltibia 71.5912
lfoot -16.5937 -21.133
ltoes -5.23035
193
root 0.580045 15.1713 -16.8546 376.018 19.8937 11.1733
lowerback 87.2713 -8.31671 10.1004
upperback 6.95859 1.50931 -2.19671
thorax -11.0552 1.34225 -7.02484
lowerneck 2.98904 -7.95151 -2.03666
upperneck 6.9363 -10.6521 6.07613
head 2.17817 -5.14254 2.15368
rclavicle 3.18055e-014 3.57812e-015
rhumerus 235.637 -157.2 -264.182
rradius 5.21495
rwrist 6.0788
rhand -56.8986 -0.269508
rfingers 7.12502
rthumb -29.1947 -27.9996
lclavicle 3.18055e-014 3.57812e-015
lhumerus -29.5032 -18.6661 93.487
lradius 55.1161
lwrist 14.1421
lhand -7.02905 -7.53741
lfingers 7.12502
lthumb 18.8429 21.5699
rfemur -61.7143 -10.9611 3.49484
rtibia 79.6506
rfoot -28.2194 -5.01284
rtoes -17.4356
lfemur -65.3754 -7.08715 -28.1918
ltibia 71.6944
lfoot -16.6276 -21.31
ltoes -5.33262
